if (_typeface_js && _typeface_js.loadFace) _typeface_js.loadFace({"glyphs":{"0":{"ha":1111,"x_min":29,"x_max":981,"o":"m 904 1029 l 843 971 l 586 971 l 525 1026 l 586 1085 l 843 1085 l 904 1029 m 981 500 l 925 439 l 867 500 l 867 949 l 922 1010 l 981 949 l 981 500 m 846 801 l 633 497 l 582 497 l 582 617 l 815 950 l 846 950 l 846 801 m 485 1029 l 424 971 l 167 971 l 106 1026 l 167 1085 l 424 1085 l 485 1029 m 981 -107 l 925 -169 l 867 -107 l 867 338 l 922 399 l 981 338 l 981 -107 m 143 500 l 88 439 l 29 500 l 29 946 l 85 1007 l 143 946 l 143 500 m 904 -187 l 843 -246 l 586 -246 l 525 -190 l 586 -132 l 843 -132 l 904 -187 m 428 222 l 194 -111 l 164 -111 l 164 36 l 376 342 l 428 342 l 428 222 m 143 -107 l 88 -169 l 29 -107 l 29 338 l 85 399 l 143 338 l 143 -107 m 485 -187 l 424 -246 l 167 -246 l 106 -190 l 167 -132 l 424 -132 l 485 -187 z "},"1":{"ha":1111,"x_min":106,"x_max":904,"o":"m 485 1029 l 424 971 l 167 971 l 106 1026 l 167 1085 l 424 1085 l 485 1029 m 563 500 l 507 439 l 447 500 l 447 946 l 503 1007 l 563 946 l 563 500 m 563 -107 l 507 -169 l 447 -107 l 447 338 l 503 399 l 563 338 l 563 -107 m 904 -187 l 843 -246 l 586 -246 l 525 -190 l 586 -132 l 843 -132 l 904 -187 m 485 -187 l 424 -246 l 167 -246 l 106 -190 l 167 -132 l 424 -132 l 485 -187 z "},"2":{"ha":1111,"x_min":29,"x_max":981,"o":"m 904 1029 l 843 971 l 586 971 l 525 1026 l 586 1085 l 843 1085 l 904 1029 m 981 500 l 925 439 l 867 500 l 867 949 l 922 1010 l 981 949 l 981 500 m 485 1029 l 424 971 l 167 971 l 106 1026 l 167 1085 l 424 1085 l 485 1029 m 904 421 l 843 363 l 586 363 l 525 418 l 586 476 l 843 476 l 904 421 m 485 421 l 424 363 l 167 363 l 106 418 l 167 476 l 424 476 l 485 421 m 904 -187 l 843 -246 l 586 -246 l 525 -190 l 586 -132 l 843 -132 l 904 -187 m 143 -107 l 88 -169 l 29 -107 l 29 338 l 85 399 l 143 338 l 143 -107 m 485 -187 l 424 -246 l 167 -246 l 106 -190 l 167 -132 l 424 -132 l 485 -187 z "},"3":{"ha":1111,"x_min":106,"x_max":981,"o":"m 904 1029 l 843 971 l 586 971 l 525 1026 l 586 1085 l 843 1085 l 904 1029 m 981 500 l 925 439 l 867 500 l 867 949 l 922 1010 l 981 949 l 981 500 m 485 1029 l 424 971 l 167 971 l 106 1026 l 167 1085 l 424 1085 l 485 1029 m 904 421 l 843 363 l 586 363 l 525 418 l 586 476 l 843 476 l 904 421 m 981 -107 l 925 -169 l 867 -107 l 867 338 l 922 399 l 981 338 l 981 -107 m 904 -187 l 843 -246 l 586 -246 l 525 -190 l 586 -132 l 843 -132 l 904 -187 m 485 -187 l 424 -246 l 167 -246 l 106 -190 l 167 -132 l 424 -132 l 485 -187 z "},"4":{"ha":1111,"x_min":29,"x_max":981,"o":"m 981 500 l 925 439 l 867 500 l 867 949 l 922 1010 l 981 949 l 981 500 m 904 421 l 843 363 l 586 363 l 525 418 l 586 476 l 843 476 l 904 421 m 981 -107 l 925 -169 l 867 -107 l 867 338 l 922 399 l 981 338 l 981 -107 m 143 500 l 88 439 l 29 500 l 29 946 l 85 1007 l 143 946 l 143 500 m 485 421 l 424 363 l 167 363 l 106 418 l 167 476 l 424 476 l 485 421 z "},"5":{"ha":1111,"x_min":29,"x_max":981,"o":"m 904 1029 l 843 971 l 586 971 l 525 1026 l 586 1085 l 843 1085 l 904 1029 m 485 1029 l 424 971 l 167 971 l 106 1026 l 167 1085 l 424 1085 l 485 1029 m 904 421 l 843 363 l 586 363 l 525 418 l 586 476 l 843 476 l 904 421 m 981 -107 l 925 -169 l 867 -107 l 867 338 l 922 399 l 981 338 l 981 -107 m 143 500 l 88 439 l 29 500 l 29 946 l 85 1007 l 143 946 l 143 500 m 485 421 l 424 363 l 167 363 l 106 418 l 167 476 l 424 476 l 485 421 m 904 -187 l 843 -246 l 586 -246 l 525 -190 l 586 -132 l 843 -132 l 904 -187 m 485 -187 l 424 -246 l 167 -246 l 106 -190 l 167 -132 l 424 -132 l 485 -187 z "},"6":{"ha":1111,"x_min":29,"x_max":981,"o":"m 904 1029 l 843 971 l 586 971 l 525 1026 l 586 1085 l 843 1085 l 904 1029 m 485 1029 l 424 971 l 167 971 l 106 1026 l 167 1085 l 424 1085 l 485 1029 m 904 421 l 843 363 l 586 363 l 525 418 l 586 476 l 843 476 l 904 421 m 981 -107 l 925 -169 l 867 -107 l 867 338 l 922 399 l 981 338 l 981 -107 m 143 500 l 88 439 l 29 500 l 29 946 l 85 1007 l 143 946 l 143 500 m 485 421 l 424 363 l 167 363 l 106 418 l 167 476 l 424 476 l 485 421 m 904 -187 l 843 -246 l 586 -246 l 525 -190 l 586 -132 l 843 -132 l 904 -187 m 143 -107 l 88 -169 l 29 -107 l 29 338 l 85 399 l 143 338 l 143 -107 m 485 -187 l 424 -246 l 167 -246 l 106 -190 l 167 -132 l 424 -132 l 485 -187 z "},"7":{"ha":1111,"x_min":106,"x_max":904,"o":"m 904 1029 l 843 971 l 586 971 l 525 1026 l 586 1085 l 843 1085 l 904 1029 m 846 801 l 633 497 l 582 497 l 582 617 l 815 950 l 846 950 l 846 801 m 485 1029 l 424 971 l 167 971 l 106 1026 l 167 1085 l 424 1085 l 485 1029 m 428 222 l 194 -111 l 164 -111 l 164 36 l 376 342 l 428 342 l 428 222 z "},"8":{"ha":1111,"x_min":29,"x_max":981,"o":"m 904 1029 l 843 971 l 586 971 l 525 1026 l 586 1085 l 843 1085 l 904 1029 m 981 500 l 925 439 l 867 500 l 867 949 l 922 1010 l 981 949 l 981 500 m 485 1029 l 424 971 l 167 971 l 106 1026 l 167 1085 l 424 1085 l 485 1029 m 904 421 l 843 363 l 586 363 l 525 418 l 586 476 l 843 476 l 904 421 m 981 -107 l 925 -169 l 867 -107 l 867 338 l 922 399 l 981 338 l 981 -107 m 143 500 l 88 439 l 29 500 l 29 946 l 85 1007 l 143 946 l 143 500 m 485 421 l 424 363 l 167 363 l 106 418 l 167 476 l 424 476 l 485 421 m 904 -187 l 843 -246 l 586 -246 l 525 -190 l 586 -132 l 843 -132 l 904 -187 m 143 -107 l 88 -169 l 29 -107 l 29 338 l 85 399 l 143 338 l 143 -107 m 485 -187 l 424 -246 l 167 -246 l 106 -190 l 167 -132 l 424 -132 l 485 -187 z "},"9":{"ha":1111,"x_min":29,"x_max":981,"o":"m 904 1029 l 843 971 l 586 971 l 525 1026 l 586 1085 l 843 1085 l 904 1029 m 981 500 l 925 439 l 867 500 l 867 949 l 922 1010 l 981 949 l 981 500 m 485 1029 l 424 971 l 167 971 l 106 1026 l 167 1085 l 424 1085 l 485 1029 m 904 421 l 843 363 l 586 363 l 525 418 l 586 476 l 843 476 l 904 421 m 981 -107 l 925 -169 l 867 -107 l 867 338 l 922 399 l 981 338 l 981 -107 m 143 500 l 88 439 l 29 500 l 29 946 l 85 1007 l 143 946 l 143 500 m 485 421 l 424 363 l 167 363 l 106 418 l 167 476 l 424 476 l 485 421 m 904 -187 l 843 -246 l 586 -246 l 525 -190 l 586 -132 l 843 -132 l 904 -187 m 485 -187 l 424 -246 l 167 -246 l 106 -190 l 167 -132 l 424 -132 l 485 -187 z "}," ":{"ha":1111,"x_min":0,"x_max":0,"o":""},"!":{"ha":1111,"x_min":404,"x_max":606,"o":"m 563 500 l 507 439 l 447 500 l 447 946 l 503 1007 l 563 946 l 563 500 m 606 -144 q 576 -215 606 -185 q 506 -246 546 -246 q 434 -216 464 -246 q 404 -144 404 -186 q 433 -74 404 -101 q 506 -46 463 -46 q 576 -74 547 -46 q 606 -144 606 -103 z "},"\"":{"ha":1111,"x_min":29,"x_max":563,"o":"m 563 778 l 507 717 l 447 778 l 447 946 l 503 1007 l 563 946 l 563 778 m 143 778 l 88 717 l 29 778 l 29 946 l 85 1007 l 143 946 l 143 778 z "},"#":{"ha":1111,"x_min":29,"x_max":981,"o":"m 981 500 l 925 439 l 867 500 l 867 949 l 922 1010 l 981 949 l 981 500 m 563 500 l 507 439 l 447 500 l 447 946 l 503 1007 l 563 946 l 563 500 m 904 421 l 843 363 l 586 363 l 525 418 l 586 476 l 843 476 l 904 421 m 981 -107 l 925 -169 l 867 -107 l 867 338 l 922 399 l 981 338 l 981 -107 m 143 500 l 88 439 l 29 500 l 29 946 l 85 1007 l 143 946 l 143 500 m 485 421 l 424 363 l 167 363 l 106 418 l 167 476 l 424 476 l 485 421 m 563 -107 l 507 -169 l 447 -107 l 447 338 l 503 399 l 563 338 l 563 -107 m 143 -107 l 88 -169 l 29 -107 l 29 338 l 85 399 l 143 338 l 143 -107 z "},"$":{"ha":1111,"x_min":29,"x_max":981,"o":"m 904 1029 l 843 971 l 586 971 l 525 1026 l 586 1085 l 843 1085 l 904 1029 m 485 1029 l 424 971 l 167 971 l 106 1026 l 167 1085 l 424 1085 l 485 1029 m 904 421 l 843 363 l 586 363 l 525 418 l 586 476 l 843 476 l 904 421 m 981 -107 l 925 -169 l 867 -107 l 867 338 l 922 399 l 981 338 l 981 -107 m 143 500 l 88 439 l 29 500 l 29 946 l 85 1007 l 143 946 l 143 500 m 485 421 l 424 363 l 167 363 l 106 418 l 167 476 l 424 476 l 485 421 m 904 -187 l 843 -246 l 586 -246 l 525 -190 l 586 -132 l 843 -132 l 904 -187 m 485 -187 l 424 -246 l 167 -246 l 106 -190 l 167 -132 l 424 -132 l 485 -187 m 563 500 l 507 439 l 447 500 l 447 946 l 503 1007 l 563 946 l 563 500 m 563 -107 l 507 -169 l 447 -107 l 447 338 l 503 399 l 563 338 l 563 -107 z "},"%":{"ha":1111,"x_min":29,"x_max":981,"o":"m 846 801 l 633 497 l 582 497 l 582 617 l 815 950 l 846 950 l 846 801 m 428 222 l 194 -111 l 164 -111 l 164 36 l 376 342 l 428 342 l 428 222 m 485 1029 l 424 971 l 167 971 l 106 1026 l 167 1085 l 424 1085 l 485 1029 m 563 500 l 507 439 l 447 500 l 447 946 l 503 1007 l 563 946 l 563 500 m 904 421 l 843 363 l 586 363 l 525 418 l 586 476 l 843 476 l 904 421 m 981 -107 l 925 -169 l 867 -107 l 867 338 l 922 399 l 981 338 l 981 -107 m 143 500 l 88 439 l 29 500 l 29 946 l 85 1007 l 143 946 l 143 500 m 485 421 l 424 363 l 167 363 l 106 418 l 167 476 l 424 476 l 485 421 m 563 -107 l 507 -169 l 447 -107 l 447 338 l 503 399 l 563 338 l 563 -107 m 904 -187 l 843 -246 l 586 -246 l 525 -190 l 586 -132 l 843 -132 l 904 -187 z "},"&":{"ha":1111,"x_min":29,"x_max":904,"o":"m 485 1029 l 424 971 l 167 971 l 106 1026 l 167 1085 l 424 1085 l 485 1029 m 563 500 l 507 439 l 447 500 l 447 946 l 503 1007 l 563 946 l 563 500 m 143 500 l 88 439 l 29 500 l 29 946 l 85 1007 l 143 946 l 143 500 m 485 421 l 424 363 l 167 363 l 106 418 l 167 476 l 424 476 l 485 421 m 563 -107 l 507 -169 l 447 -107 l 447 338 l 503 399 l 563 338 l 563 -107 m 904 -187 l 843 -246 l 586 -246 l 525 -190 l 586 -132 l 843 -132 l 904 -187 m 143 -107 l 88 -169 l 29 -107 l 29 338 l 85 399 l 143 338 l 143 -107 m 485 -187 l 424 -246 l 167 -246 l 106 -190 l 167 -132 l 424 -132 l 485 -187 m 846 222 l 613 -111 l 582 -111 l 582 36 l 796 342 l 846 342 l 846 222 z "},"'":{"ha":1111,"x_min":447,"x_max":563,"o":"m 563 778 l 507 717 l 447 778 l 447 946 l 503 1007 l 563 946 l 563 778 z "},"(":{"ha":1111,"x_min":447,"x_max":904,"o":"m 904 1029 l 843 971 l 586 971 l 525 1026 l 586 1085 l 843 1085 l 904 1029 m 563 500 l 507 439 l 447 500 l 447 946 l 503 1007 l 563 946 l 563 500 m 563 -107 l 507 -169 l 447 -107 l 447 338 l 503 399 l 563 338 l 563 -107 m 904 -187 l 843 -246 l 586 -246 l 525 -190 l 586 -132 l 843 -132 l 904 -187 z "},")":{"ha":1111,"x_min":106,"x_max":563,"o":"m 485 1029 l 424 971 l 167 971 l 106 1026 l 167 1085 l 424 1085 l 485 1029 m 563 500 l 507 439 l 447 500 l 447 946 l 503 1007 l 563 946 l 563 500 m 563 -107 l 507 -169 l 447 -107 l 447 338 l 503 399 l 563 338 l 563 -107 m 485 -187 l 424 -246 l 167 -246 l 106 -190 l 167 -132 l 424 -132 l 485 -187 z "},"*":{"ha":1111,"x_min":164,"x_max":846,"o":"m 846 801 l 633 497 l 582 497 l 582 617 l 815 950 l 846 950 l 846 801 m 428 497 l 376 497 l 164 801 l 164 950 l 194 950 l 428 617 l 428 497 m 846 -111 l 815 -111 l 582 222 l 582 342 l 633 342 l 846 36 l 846 -111 m 428 222 l 194 -111 l 164 -111 l 164 36 l 376 342 l 428 342 l 428 222 z "},"+":{"ha":1111,"x_min":106,"x_max":904,"o":"m 563 500 l 507 439 l 447 500 l 447 946 l 503 1007 l 563 946 l 563 500 m 904 421 l 843 363 l 586 363 l 525 418 l 586 476 l 843 476 l 904 421 m 485 421 l 424 363 l 167 363 l 106 418 l 167 476 l 424 476 l 485 421 m 563 -107 l 507 -169 l 447 -107 l 447 338 l 503 399 l 563 338 l 563 -107 z "},",":{"ha":1111,"x_min":404,"x_max":606,"o":"m 606 -144 q 578 -254 606 -189 q 506 -329 546 -329 q 432 -256 465 -329 q 404 -144 404 -193 q 433 -74 404 -101 q 506 -46 463 -46 q 576 -74 547 -46 q 606 -144 606 -103 z "},"-":{"ha":1111,"x_min":106,"x_max":904,"o":"m 904 421 l 843 363 l 586 363 l 525 418 l 586 476 l 843 476 l 904 421 m 485 421 l 424 363 l 167 363 l 106 418 l 167 476 l 424 476 l 485 421 z "},".":{"ha":1111,"x_min":404,"x_max":606,"o":"m 606 -144 q 576 -215 606 -185 q 506 -246 546 -246 q 434 -216 464 -246 q 404 -144 404 -186 q 433 -74 404 -101 q 506 -46 463 -46 q 576 -74 547 -46 q 606 -144 606 -103 z "},"/":{"ha":1111,"x_min":164,"x_max":846,"o":"m 846 801 l 633 497 l 582 497 l 582 617 l 815 950 l 846 950 l 846 801 m 428 222 l 194 -111 l 164 -111 l 164 36 l 376 342 l 428 342 l 428 222 z "},":":{"ha":1111,"x_min":404,"x_max":606,"o":"m 606 604 q 577 533 606 561 q 506 506 549 506 q 434 534 464 506 q 404 604 404 563 q 434 676 404 646 q 506 706 464 706 q 576 676 547 706 q 606 604 606 646 m 606 235 q 576 163 606 194 q 506 132 546 132 q 434 163 464 132 q 404 235 404 193 q 433 306 404 278 q 506 333 463 333 q 576 304 546 333 q 606 235 606 275 z "},";":{"ha":1111,"x_min":404,"x_max":606,"o":"m 606 604 q 577 533 606 561 q 506 506 549 506 q 434 534 464 506 q 404 604 404 563 q 434 676 404 646 q 506 706 464 706 q 576 676 547 706 q 606 604 606 646 m 606 235 q 576 122 606 186 q 506 49 543 49 q 432 124 464 49 q 404 235 404 189 q 433 306 404 278 q 506 333 463 333 q 576 304 546 333 q 606 235 606 275 z "},"<":{"ha":1111,"x_min":582,"x_max":846,"o":"m 846 801 l 633 497 l 582 497 l 582 617 l 815 950 l 846 950 l 846 801 m 846 -111 l 815 -111 l 582 222 l 582 342 l 633 342 l 846 36 l 846 -111 z "},"=":{"ha":1111,"x_min":106,"x_max":904,"o":"m 904 560 l 843 501 l 586 501 l 525 557 l 586 615 l 843 615 l 904 560 m 485 560 l 424 501 l 167 501 l 106 557 l 167 615 l 424 615 l 485 560 m 904 282 l 843 224 l 586 224 l 525 279 l 586 338 l 843 338 l 904 282 m 485 282 l 424 224 l 167 224 l 106 279 l 167 338 l 424 338 l 485 282 z "},">":{"ha":1111,"x_min":164,"x_max":428,"o":"m 428 497 l 376 497 l 164 801 l 164 950 l 194 950 l 428 617 l 428 497 m 428 222 l 194 -111 l 164 -111 l 164 36 l 376 342 l 428 342 l 428 222 z "},"?":{"ha":1111,"x_min":106,"x_max":981,"o":"m 904 1029 l 843 971 l 586 971 l 525 1026 l 586 1085 l 843 1085 l 904 1029 m 981 500 l 925 439 l 867 500 l 867 949 l 922 1010 l 981 949 l 981 500 m 485 1029 l 424 971 l 167 971 l 106 1026 l 167 1085 l 424 1085 l 485 1029 m 904 421 l 843 363 l 586 363 l 525 418 l 586 476 l 843 476 l 904 421 m 563 -107 l 507 -169 l 447 -107 l 447 338 l 503 399 l 563 338 l 563 -107 z "},"@":{"ha":1111,"x_min":29,"x_max":981,"o":"m 904 1029 l 843 971 l 586 971 l 525 1026 l 586 1085 l 843 1085 l 904 1029 m 981 500 l 925 439 l 867 500 l 867 949 l 922 1010 l 981 949 l 981 500 m 846 801 l 633 497 l 582 497 l 582 617 l 815 950 l 846 950 l 846 801 m 485 1029 l 424 971 l 167 971 l 106 1026 l 167 1085 l 424 1085 l 485 1029 m 563 500 l 507 439 l 447 500 l 447 946 l 503 1007 l 563 946 l 563 500 m 904 421 l 843 363 l 586 363 l 525 418 l 586 476 l 843 476 l 904 421 m 981 -107 l 925 -169 l 867 -107 l 867 338 l 922 399 l 981 338 l 981 -107 m 428 497 l 376 497 l 164 801 l 164 950 l 194 950 l 428 617 l 428 497 m 846 -111 l 815 -111 l 582 222 l 582 342 l 633 342 l 846 36 l 846 -111 m 143 500 l 88 439 l 29 500 l 29 946 l 85 1007 l 143 946 l 143 500 m 485 421 l 424 363 l 167 363 l 106 418 l 167 476 l 424 476 l 485 421 m 563 -107 l 507 -169 l 447 -107 l 447 338 l 503 399 l 563 338 l 563 -107 m 904 -187 l 843 -246 l 586 -246 l 525 -190 l 586 -132 l 843 -132 l 904 -187 m 428 222 l 194 -111 l 164 -111 l 164 36 l 376 342 l 428 342 l 428 222 m 143 -107 l 88 -169 l 29 -107 l 29 338 l 85 399 l 143 338 l 143 -107 m 485 -187 l 424 -246 l 167 -246 l 106 -190 l 167 -132 l 424 -132 l 485 -187 z "},"A":{"ha":1111,"x_min":29,"x_max":981,"o":"m 846 497 l 796 497 l 582 801 l 582 950 l 613 950 l 846 617 l 846 497 m 904 421 l 843 363 l 586 363 l 525 418 l 586 476 l 843 476 l 904 421 m 981 -107 l 925 -169 l 867 -107 l 867 338 l 922 399 l 981 338 l 981 -107 m 428 801 l 214 497 l 164 497 l 164 617 l 397 950 l 428 950 l 428 801 m 485 421 l 424 363 l 167 363 l 106 418 l 167 476 l 424 476 l 485 421 m 143 -107 l 88 -169 l 29 -107 l 29 338 l 85 399 l 143 338 l 143 -107 z "},"B":{"ha":1111,"x_min":29,"x_max":981,"o":"m 904 1029 l 843 971 l 586 971 l 525 1026 l 586 1085 l 843 1085 l 904 1029 m 981 500 l 925 439 l 867 500 l 867 949 l 922 1010 l 981 949 l 981 500 m 485 1029 l 424 971 l 167 971 l 106 1026 l 167 1085 l 424 1085 l 485 1029 m 904 421 l 843 363 l 586 363 l 525 418 l 586 476 l 843 476 l 904 421 m 981 -107 l 925 -169 l 867 -107 l 867 338 l 922 399 l 981 338 l 981 -107 m 143 500 l 88 439 l 29 500 l 29 946 l 85 1007 l 143 946 l 143 500 m 485 421 l 424 363 l 167 363 l 106 418 l 167 476 l 424 476 l 485 421 m 904 -187 l 843 -246 l 586 -246 l 525 -190 l 586 -132 l 843 -132 l 904 -187 m 143 -107 l 88 -169 l 29 -107 l 29 338 l 85 399 l 143 338 l 143 -107 m 485 -187 l 424 -246 l 167 -246 l 106 -190 l 167 -132 l 424 -132 l 485 -187 z "},"C":{"ha":1111,"x_min":29,"x_max":904,"o":"m 904 1029 l 843 971 l 586 971 l 525 1026 l 586 1085 l 843 1085 l 904 1029 m 485 1029 l 424 971 l 167 971 l 106 1026 l 167 1085 l 424 1085 l 485 1029 m 143 500 l 88 439 l 29 500 l 29 946 l 85 1007 l 143 946 l 143 500 m 904 -187 l 843 -246 l 586 -246 l 525 -190 l 586 -132 l 843 -132 l 904 -187 m 143 -107 l 88 -169 l 29 -107 l 29 338 l 85 399 l 143 338 l 143 -107 m 485 -187 l 424 -246 l 167 -246 l 106 -190 l 167 -132 l 424 -132 l 485 -187 z "},"D":{"ha":1111,"x_min":29,"x_max":846,"o":"m 846 497 l 796 497 l 582 801 l 582 950 l 613 950 l 846 617 l 846 497 m 485 1029 l 424 971 l 167 971 l 106 1026 l 167 1085 l 424 1085 l 485 1029 m 846 222 l 613 -111 l 582 -111 l 582 36 l 796 342 l 846 342 l 846 222 m 143 500 l 88 439 l 29 500 l 29 946 l 85 1007 l 143 946 l 143 500 m 143 -107 l 88 -169 l 29 -107 l 29 338 l 85 399 l 143 338 l 143 -107 m 485 -187 l 424 -246 l 167 -246 l 106 -190 l 167 -132 l 424 -132 l 485 -187 z "},"E":{"ha":1111,"x_min":29,"x_max":904,"o":"m 904 1029 l 843 971 l 586 971 l 525 1026 l 586 1085 l 843 1085 l 904 1029 m 485 1029 l 424 971 l 167 971 l 106 1026 l 167 1085 l 424 1085 l 485 1029 m 904 421 l 843 363 l 586 363 l 525 418 l 586 476 l 843 476 l 904 421 m 143 500 l 88 439 l 29 500 l 29 946 l 85 1007 l 143 946 l 143 500 m 485 421 l 424 363 l 167 363 l 106 418 l 167 476 l 424 476 l 485 421 m 904 -187 l 843 -246 l 586 -246 l 525 -190 l 586 -132 l 843 -132 l 904 -187 m 143 -107 l 88 -169 l 29 -107 l 29 338 l 85 399 l 143 338 l 143 -107 m 485 -187 l 424 -246 l 167 -246 l 106 -190 l 167 -132 l 424 -132 l 485 -187 z "},"F":{"ha":1111,"x_min":29,"x_max":904,"o":"m 904 1029 l 843 971 l 586 971 l 525 1026 l 586 1085 l 843 1085 l 904 1029 m 485 1029 l 424 971 l 167 971 l 106 1026 l 167 1085 l 424 1085 l 485 1029 m 904 421 l 843 363 l 586 363 l 525 418 l 586 476 l 843 476 l 904 421 m 143 500 l 88 439 l 29 500 l 29 946 l 85 1007 l 143 946 l 143 500 m 485 421 l 424 363 l 167 363 l 106 418 l 167 476 l 424 476 l 485 421 m 143 -107 l 88 -169 l 29 -107 l 29 338 l 85 399 l 143 338 l 143 -107 z "},"G":{"ha":1111,"x_min":29,"x_max":981,"o":"m 904 1029 l 843 971 l 586 971 l 525 1026 l 586 1085 l 843 1085 l 904 1029 m 485 1029 l 424 971 l 167 971 l 106 1026 l 167 1085 l 424 1085 l 485 1029 m 904 421 l 843 363 l 586 363 l 525 418 l 586 476 l 843 476 l 904 421 m 981 -107 l 925 -169 l 867 -107 l 867 338 l 922 399 l 981 338 l 981 -107 m 143 500 l 88 439 l 29 500 l 29 946 l 85 1007 l 143 946 l 143 500 m 904 -187 l 843 -246 l 586 -246 l 525 -190 l 586 -132 l 843 -132 l 904 -187 m 143 -107 l 88 -169 l 29 -107 l 29 338 l 85 399 l 143 338 l 143 -107 m 485 -187 l 424 -246 l 167 -246 l 106 -190 l 167 -132 l 424 -132 l 485 -187 z "},"H":{"ha":1111,"x_min":29,"x_max":981,"o":"m 981 500 l 925 439 l 867 500 l 867 949 l 922 1010 l 981 949 l 981 500 m 904 421 l 843 363 l 586 363 l 525 418 l 586 476 l 843 476 l 904 421 m 981 -107 l 925 -169 l 867 -107 l 867 338 l 922 399 l 981 338 l 981 -107 m 143 500 l 88 439 l 29 500 l 29 946 l 85 1007 l 143 946 l 143 500 m 485 421 l 424 363 l 167 363 l 106 418 l 167 476 l 424 476 l 485 421 m 143 -107 l 88 -169 l 29 -107 l 29 338 l 85 399 l 143 338 l 143 -107 z "},"I":{"ha":1111,"x_min":106,"x_max":904,"o":"m 904 1029 l 843 971 l 586 971 l 525 1026 l 586 1085 l 843 1085 l 904 1029 m 485 1029 l 424 971 l 167 971 l 106 1026 l 167 1085 l 424 1085 l 485 1029 m 563 500 l 507 439 l 447 500 l 447 946 l 503 1007 l 563 946 l 563 500 m 563 -107 l 507 -169 l 447 -107 l 447 338 l 503 399 l 563 338 l 563 -107 m 904 -187 l 843 -246 l 586 -246 l 525 -190 l 586 -132 l 843 -132 l 904 -187 m 485 -187 l 424 -246 l 167 -246 l 106 -190 l 167 -132 l 424 -132 l 485 -187 z "},"J":{"ha":1111,"x_min":29,"x_max":981,"o":"m 904 1029 l 843 971 l 586 971 l 525 1026 l 586 1085 l 843 1085 l 904 1029 m 981 500 l 925 439 l 867 500 l 867 949 l 922 1010 l 981 949 l 981 500 m 981 -107 l 925 -169 l 867 -107 l 867 338 l 922 399 l 981 338 l 981 -107 m 904 -187 l 843 -246 l 586 -246 l 525 -190 l 586 -132 l 843 -132 l 904 -187 m 143 -107 l 88 -169 l 29 -107 l 29 338 l 85 399 l 143 338 l 143 -107 m 485 -187 l 424 -246 l 167 -246 l 106 -190 l 167 -132 l 424 -132 l 485 -187 z "},"K":{"ha":1111,"x_min":29,"x_max":846,"o":"m 846 801 l 633 497 l 582 497 l 582 617 l 815 950 l 846 950 l 846 801 m 846 -111 l 815 -111 l 582 222 l 582 342 l 633 342 l 846 36 l 846 -111 m 143 500 l 88 439 l 29 500 l 29 946 l 85 1007 l 143 946 l 143 500 m 485 421 l 424 363 l 167 363 l 106 418 l 167 476 l 424 476 l 485 421 m 143 -107 l 88 -169 l 29 -107 l 29 338 l 85 399 l 143 338 l 143 -107 z "},"L":{"ha":1111,"x_min":29,"x_max":904,"o":"m 143 500 l 88 439 l 29 500 l 29 946 l 85 1007 l 143 946 l 143 500 m 904 -187 l 843 -246 l 586 -246 l 525 -190 l 586 -132 l 843 -132 l 904 -187 m 143 -107 l 88 -169 l 29 -107 l 29 338 l 85 399 l 143 338 l 143 -107 m 485 -187 l 424 -246 l 167 -246 l 106 -190 l 167 -132 l 424 -132 l 485 -187 z "},"M":{"ha":1111,"x_min":29,"x_max":981,"o":"m 981 500 l 925 439 l 867 500 l 867 949 l 922 1010 l 981 949 l 981 500 m 846 801 l 633 497 l 582 497 l 582 617 l 815 950 l 846 950 l 846 801 m 981 -107 l 925 -169 l 867 -107 l 867 338 l 922 399 l 981 338 l 981 -107 m 428 497 l 376 497 l 164 801 l 164 950 l 194 950 l 428 617 l 428 497 m 143 500 l 88 439 l 29 500 l 29 946 l 85 1007 l 143 946 l 143 500 m 143 -107 l 88 -169 l 29 -107 l 29 338 l 85 399 l 143 338 l 143 -107 z "},"N":{"ha":1111,"x_min":29,"x_max":981,"o":"m 981 500 l 925 439 l 867 500 l 867 949 l 922 1010 l 981 949 l 981 500 m 981 -107 l 925 -169 l 867 -107 l 867 338 l 922 399 l 981 338 l 981 -107 m 428 497 l 376 497 l 164 801 l 164 950 l 194 950 l 428 617 l 428 497 m 846 -111 l 815 -111 l 582 222 l 582 342 l 633 342 l 846 36 l 846 -111 m 143 500 l 88 439 l 29 500 l 29 946 l 85 1007 l 143 946 l 143 500 m 143 -107 l 88 -169 l 29 -107 l 29 338 l 85 399 l 143 338 l 143 -107 z "},"O":{"ha":1111,"x_min":29,"x_max":981,"o":"m 904 1029 l 843 971 l 586 971 l 525 1026 l 586 1085 l 843 1085 l 904 1029 m 981 500 l 925 439 l 867 500 l 867 949 l 922 1010 l 981 949 l 981 500 m 485 1029 l 424 971 l 167 971 l 106 1026 l 167 1085 l 424 1085 l 485 1029 m 981 -107 l 925 -169 l 867 -107 l 867 338 l 922 399 l 981 338 l 981 -107 m 143 500 l 88 439 l 29 500 l 29 946 l 85 1007 l 143 946 l 143 500 m 904 -187 l 843 -246 l 586 -246 l 525 -190 l 586 -132 l 843 -132 l 904 -187 m 143 -107 l 88 -169 l 29 -107 l 29 338 l 85 399 l 143 338 l 143 -107 m 485 -187 l 424 -246 l 167 -246 l 106 -190 l 167 -132 l 424 -132 l 485 -187 z "},"P":{"ha":1111,"x_min":29,"x_max":981,"o":"m 904 1029 l 843 971 l 586 971 l 525 1026 l 586 1085 l 843 1085 l 904 1029 m 981 500 l 925 439 l 867 500 l 867 949 l 922 1010 l 981 949 l 981 500 m 485 1029 l 424 971 l 167 971 l 106 1026 l 167 1085 l 424 1085 l 485 1029 m 904 421 l 843 363 l 586 363 l 525 418 l 586 476 l 843 476 l 904 421 m 143 500 l 88 439 l 29 500 l 29 946 l 85 1007 l 143 946 l 143 500 m 485 421 l 424 363 l 167 363 l 106 418 l 167 476 l 424 476 l 485 421 m 143 -107 l 88 -169 l 29 -107 l 29 338 l 85 399 l 143 338 l 143 -107 z "},"Q":{"ha":1111,"x_min":29,"x_max":981,"o":"m 904 1029 l 843 971 l 586 971 l 525 1026 l 586 1085 l 843 1085 l 904 1029 m 981 500 l 925 439 l 867 500 l 867 949 l 922 1010 l 981 949 l 981 500 m 485 1029 l 424 971 l 167 971 l 106 1026 l 167 1085 l 424 1085 l 485 1029 m 981 -107 l 925 -169 l 867 -107 l 867 338 l 922 399 l 981 338 l 981 -107 m 846 -111 l 815 -111 l 582 222 l 582 342 l 633 342 l 846 36 l 846 -111 m 143 500 l 88 439 l 29 500 l 29 946 l 85 1007 l 143 946 l 143 500 m 904 -187 l 843 -246 l 586 -246 l 525 -190 l 586 -132 l 843 -132 l 904 -187 m 143 -107 l 88 -169 l 29 -107 l 29 338 l 85 399 l 143 338 l 143 -107 m 485 -187 l 424 -246 l 167 -246 l 106 -190 l 167 -132 l 424 -132 l 485 -187 z "},"R":{"ha":1111,"x_min":29,"x_max":981,"o":"m 904 1029 l 843 971 l 586 971 l 525 1026 l 586 1085 l 843 1085 l 904 1029 m 981 500 l 925 439 l 867 500 l 867 949 l 922 1010 l 981 949 l 981 500 m 485 1029 l 424 971 l 167 971 l 106 1026 l 167 1085 l 424 1085 l 485 1029 m 904 421 l 843 363 l 586 363 l 525 418 l 586 476 l 843 476 l 904 421 m 846 -111 l 815 -111 l 582 222 l 582 342 l 633 342 l 846 36 l 846 -111 m 143 500 l 88 439 l 29 500 l 29 946 l 85 1007 l 143 946 l 143 500 m 485 421 l 424 363 l 167 363 l 106 418 l 167 476 l 424 476 l 485 421 m 143 -107 l 88 -169 l 29 -107 l 29 338 l 85 399 l 143 338 l 143 -107 z "},"S":{"ha":1111,"x_min":29,"x_max":981,"o":"m 904 1029 l 843 971 l 586 971 l 525 1026 l 586 1085 l 843 1085 l 904 1029 m 485 1029 l 424 971 l 167 971 l 106 1026 l 167 1085 l 424 1085 l 485 1029 m 904 421 l 843 363 l 586 363 l 525 418 l 586 476 l 843 476 l 904 421 m 981 -107 l 925 -169 l 867 -107 l 867 338 l 922 399 l 981 338 l 981 -107 m 143 500 l 88 439 l 29 500 l 29 946 l 85 1007 l 143 946 l 143 500 m 485 421 l 424 363 l 167 363 l 106 418 l 167 476 l 424 476 l 485 421 m 904 -187 l 843 -246 l 586 -246 l 525 -190 l 586 -132 l 843 -132 l 904 -187 m 485 -187 l 424 -246 l 167 -246 l 106 -190 l 167 -132 l 424 -132 l 485 -187 z "},"T":{"ha":1111,"x_min":106,"x_max":904,"o":"m 904 1029 l 843 971 l 586 971 l 525 1026 l 586 1085 l 843 1085 l 904 1029 m 485 1029 l 424 971 l 167 971 l 106 1026 l 167 1085 l 424 1085 l 485 1029 m 563 500 l 507 439 l 447 500 l 447 946 l 503 1007 l 563 946 l 563 500 m 563 -107 l 507 -169 l 447 -107 l 447 338 l 503 399 l 563 338 l 563 -107 z "},"U":{"ha":1111,"x_min":29,"x_max":981,"o":"m 981 500 l 925 439 l 867 500 l 867 949 l 922 1010 l 981 949 l 981 500 m 981 -107 l 925 -169 l 867 -107 l 867 338 l 922 399 l 981 338 l 981 -107 m 143 500 l 88 439 l 29 500 l 29 946 l 85 1007 l 143 946 l 143 500 m 904 -187 l 843 -246 l 586 -246 l 525 -190 l 586 -132 l 843 -132 l 904 -187 m 143 -107 l 88 -169 l 29 -107 l 29 338 l 85 399 l 143 338 l 143 -107 m 485 -187 l 424 -246 l 167 -246 l 106 -190 l 167 -132 l 424 -132 l 485 -187 z "},"V":{"ha":1111,"x_min":29,"x_max":981,"o":"m 981 500 l 925 439 l 867 500 l 867 949 l 922 1010 l 981 949 l 981 500 m 846 222 l 613 -111 l 582 -111 l 582 36 l 796 342 l 846 342 l 846 222 m 143 500 l 88 439 l 29 500 l 29 946 l 85 1007 l 143 946 l 143 500 m 428 -111 l 397 -111 l 164 222 l 164 342 l 214 342 l 428 36 l 428 -111 z "},"W":{"ha":1111,"x_min":29,"x_max":981,"o":"m 981 500 l 925 439 l 867 500 l 867 949 l 922 1010 l 981 949 l 981 500 m 981 -107 l 925 -169 l 867 -107 l 867 338 l 922 399 l 981 338 l 981 -107 m 846 -111 l 815 -111 l 582 222 l 582 342 l 633 342 l 846 36 l 846 -111 m 143 500 l 88 439 l 29 500 l 29 946 l 85 1007 l 143 946 l 143 500 m 428 222 l 194 -111 l 164 -111 l 164 36 l 376 342 l 428 342 l 428 222 m 143 -107 l 88 -169 l 29 -107 l 29 338 l 85 399 l 143 338 l 143 -107 z "},"X":{"ha":1111,"x_min":164,"x_max":846,"o":"m 846 801 l 633 497 l 582 497 l 582 617 l 815 950 l 846 950 l 846 801 m 428 497 l 376 497 l 164 801 l 164 950 l 194 950 l 428 617 l 428 497 m 846 -111 l 815 -111 l 582 222 l 582 342 l 633 342 l 846 36 l 846 -111 m 428 222 l 194 -111 l 164 -111 l 164 36 l 376 342 l 428 342 l 428 222 z "},"Y":{"ha":1111,"x_min":164,"x_max":846,"o":"m 846 801 l 633 497 l 582 497 l 582 617 l 815 950 l 846 950 l 846 801 m 428 497 l 376 497 l 164 801 l 164 950 l 194 950 l 428 617 l 428 497 m 563 -107 l 507 -169 l 447 -107 l 447 338 l 503 399 l 563 338 l 563 -107 z "},"Z":{"ha":1111,"x_min":106,"x_max":904,"o":"m 904 1029 l 843 971 l 586 971 l 525 1026 l 586 1085 l 843 1085 l 904 1029 m 846 801 l 633 497 l 582 497 l 582 617 l 815 950 l 846 950 l 846 801 m 485 1029 l 424 971 l 167 971 l 106 1026 l 167 1085 l 424 1085 l 485 1029 m 904 -187 l 843 -246 l 586 -246 l 525 -190 l 586 -132 l 843 -132 l 904 -187 m 428 222 l 194 -111 l 164 -111 l 164 36 l 376 342 l 428 342 l 428 222 m 485 -187 l 424 -246 l 167 -246 l 106 -190 l 167 -132 l 424 -132 l 485 -187 z "},"[":{"ha":1111,"x_min":447,"x_max":904,"o":"m 904 1029 l 843 971 l 586 971 l 525 1026 l 586 1085 l 843 1085 l 904 1029 m 563 500 l 507 439 l 447 500 l 447 946 l 503 1007 l 563 946 l 563 500 m 563 -107 l 507 -169 l 447 -107 l 447 338 l 503 399 l 563 338 l 563 -107 m 904 -187 l 843 -246 l 586 -246 l 525 -190 l 586 -132 l 843 -132 l 904 -187 z "},"\\":{"ha":1111,"x_min":164,"x_max":846,"o":"m 428 497 l 376 497 l 164 801 l 164 950 l 194 950 l 428 617 l 428 497 m 846 -111 l 815 -111 l 582 222 l 582 342 l 633 342 l 846 36 l 846 -111 z "},"]":{"ha":1111,"x_min":106,"x_max":563,"o":"m 485 1029 l 424 971 l 167 971 l 106 1026 l 167 1085 l 424 1085 l 485 1029 m 563 500 l 507 439 l 447 500 l 447 946 l 503 1007 l 563 946 l 563 500 m 563 -107 l 507 -169 l 447 -107 l 447 338 l 503 399 l 563 338 l 563 -107 m 485 -187 l 424 -246 l 167 -246 l 106 -190 l 167 -132 l 424 -132 l 485 -187 z "},"^":{"ha":1111,"x_min":164,"x_max":846,"o":"m 846 497 l 796 497 l 582 801 l 582 950 l 613 950 l 846 617 l 846 497 m 428 801 l 214 497 l 164 497 l 164 617 l 397 950 l 428 950 l 428 801 z "},"_":{"ha":1111,"x_min":106,"x_max":904,"o":"m 904 -187 l 843 -246 l 586 -246 l 525 -190 l 586 -132 l 843 -132 l 904 -187 m 485 -187 l 424 -246 l 167 -246 l 106 -190 l 167 -132 l 424 -132 l 485 -187 z "},"`":{"ha":1111,"x_min":164,"x_max":428,"o":"m 428 497 l 376 497 l 164 801 l 164 950 l 194 950 l 428 617 l 428 497 z "},"a":{"ha":1111,"x_min":29,"x_max":981,"o":"m 846 497 l 796 497 l 582 801 l 582 950 l 613 950 l 846 617 l 846 497 m 904 421 l 843 363 l 586 363 l 525 418 l 586 476 l 843 476 l 904 421 m 981 -107 l 925 -169 l 867 -107 l 867 338 l 922 399 l 981 338 l 981 -107 m 428 801 l 214 497 l 164 497 l 164 617 l 397 950 l 428 950 l 428 801 m 485 421 l 424 363 l 167 363 l 106 418 l 167 476 l 424 476 l 485 421 m 143 -107 l 88 -169 l 29 -107 l 29 338 l 85 399 l 143 338 l 143 -107 z "},"b":{"ha":1111,"x_min":29,"x_max":981,"o":"m 904 1029 l 843 971 l 586 971 l 525 1026 l 586 1085 l 843 1085 l 904 1029 m 981 500 l 925 439 l 867 500 l 867 949 l 922 1010 l 981 949 l 981 500 m 485 1029 l 424 971 l 167 971 l 106 1026 l 167 1085 l 424 1085 l 485 1029 m 904 421 l 843 363 l 586 363 l 525 418 l 586 476 l 843 476 l 904 421 m 981 -107 l 925 -169 l 867 -107 l 867 338 l 922 399 l 981 338 l 981 -107 m 143 500 l 88 439 l 29 500 l 29 946 l 85 1007 l 143 946 l 143 500 m 485 421 l 424 363 l 167 363 l 106 418 l 167 476 l 424 476 l 485 421 m 904 -187 l 843 -246 l 586 -246 l 525 -190 l 586 -132 l 843 -132 l 904 -187 m 143 -107 l 88 -169 l 29 -107 l 29 338 l 85 399 l 143 338 l 143 -107 m 485 -187 l 424 -246 l 167 -246 l 106 -190 l 167 -132 l 424 -132 l 485 -187 z "},"c":{"ha":1111,"x_min":29,"x_max":904,"o":"m 904 1029 l 843 971 l 586 971 l 525 1026 l 586 1085 l 843 1085 l 904 1029 m 485 1029 l 424 971 l 167 971 l 106 1026 l 167 1085 l 424 1085 l 485 1029 m 143 500 l 88 439 l 29 500 l 29 946 l 85 1007 l 143 946 l 143 500 m 904 -187 l 843 -246 l 586 -246 l 525 -190 l 586 -132 l 843 -132 l 904 -187 m 143 -107 l 88 -169 l 29 -107 l 29 338 l 85 399 l 143 338 l 143 -107 m 485 -187 l 424 -246 l 167 -246 l 106 -190 l 167 -132 l 424 -132 l 485 -187 z "},"d":{"ha":1111,"x_min":29,"x_max":846,"o":"m 846 497 l 796 497 l 582 801 l 582 950 l 613 950 l 846 617 l 846 497 m 485 1029 l 424 971 l 167 971 l 106 1026 l 167 1085 l 424 1085 l 485 1029 m 846 222 l 613 -111 l 582 -111 l 582 36 l 796 342 l 846 342 l 846 222 m 143 500 l 88 439 l 29 500 l 29 946 l 85 1007 l 143 946 l 143 500 m 143 -107 l 88 -169 l 29 -107 l 29 338 l 85 399 l 143 338 l 143 -107 m 485 -187 l 424 -246 l 167 -246 l 106 -190 l 167 -132 l 424 -132 l 485 -187 z "},"e":{"ha":1111,"x_min":29,"x_max":904,"o":"m 904 1029 l 843 971 l 586 971 l 525 1026 l 586 1085 l 843 1085 l 904 1029 m 485 1029 l 424 971 l 167 971 l 106 1026 l 167 1085 l 424 1085 l 485 1029 m 904 421 l 843 363 l 586 363 l 525 418 l 586 476 l 843 476 l 904 421 m 143 500 l 88 439 l 29 500 l 29 946 l 85 1007 l 143 946 l 143 500 m 485 421 l 424 363 l 167 363 l 106 418 l 167 476 l 424 476 l 485 421 m 904 -187 l 843 -246 l 586 -246 l 525 -190 l 586 -132 l 843 -132 l 904 -187 m 143 -107 l 88 -169 l 29 -107 l 29 338 l 85 399 l 143 338 l 143 -107 m 485 -187 l 424 -246 l 167 -246 l 106 -190 l 167 -132 l 424 -132 l 485 -187 z "},"f":{"ha":1111,"x_min":29,"x_max":904,"o":"m 904 1029 l 843 971 l 586 971 l 525 1026 l 586 1085 l 843 1085 l 904 1029 m 485 1029 l 424 971 l 167 971 l 106 1026 l 167 1085 l 424 1085 l 485 1029 m 904 421 l 843 363 l 586 363 l 525 418 l 586 476 l 843 476 l 904 421 m 143 500 l 88 439 l 29 500 l 29 946 l 85 1007 l 143 946 l 143 500 m 485 421 l 424 363 l 167 363 l 106 418 l 167 476 l 424 476 l 485 421 m 143 -107 l 88 -169 l 29 -107 l 29 338 l 85 399 l 143 338 l 143 -107 z "},"g":{"ha":1111,"x_min":29,"x_max":981,"o":"m 904 1029 l 843 971 l 586 971 l 525 1026 l 586 1085 l 843 1085 l 904 1029 m 485 1029 l 424 971 l 167 971 l 106 1026 l 167 1085 l 424 1085 l 485 1029 m 904 421 l 843 363 l 586 363 l 525 418 l 586 476 l 843 476 l 904 421 m 981 -107 l 925 -169 l 867 -107 l 867 338 l 922 399 l 981 338 l 981 -107 m 143 500 l 88 439 l 29 500 l 29 946 l 85 1007 l 143 946 l 143 500 m 904 -187 l 843 -246 l 586 -246 l 525 -190 l 586 -132 l 843 -132 l 904 -187 m 143 -107 l 88 -169 l 29 -107 l 29 338 l 85 399 l 143 338 l 143 -107 m 485 -187 l 424 -246 l 167 -246 l 106 -190 l 167 -132 l 424 -132 l 485 -187 z "},"h":{"ha":1111,"x_min":29,"x_max":981,"o":"m 981 500 l 925 439 l 867 500 l 867 949 l 922 1010 l 981 949 l 981 500 m 904 421 l 843 363 l 586 363 l 525 418 l 586 476 l 843 476 l 904 421 m 981 -107 l 925 -169 l 867 -107 l 867 338 l 922 399 l 981 338 l 981 -107 m 143 500 l 88 439 l 29 500 l 29 946 l 85 1007 l 143 946 l 143 500 m 485 421 l 424 363 l 167 363 l 106 418 l 167 476 l 424 476 l 485 421 m 143 -107 l 88 -169 l 29 -107 l 29 338 l 85 399 l 143 338 l 143 -107 z "},"i":{"ha":1111,"x_min":106,"x_max":904,"o":"m 904 1029 l 843 971 l 586 971 l 525 1026 l 586 1085 l 843 1085 l 904 1029 m 485 1029 l 424 971 l 167 971 l 106 1026 l 167 1085 l 424 1085 l 485 1029 m 563 500 l 507 439 l 447 500 l 447 946 l 503 1007 l 563 946 l 563 500 m 563 -107 l 507 -169 l 447 -107 l 447 338 l 503 399 l 563 338 l 563 -107 m 904 -187 l 843 -246 l 586 -246 l 525 -190 l 586 -132 l 843 -132 l 904 -187 m 485 -187 l 424 -246 l 167 -246 l 106 -190 l 167 -132 l 424 -132 l 485 -187 z "},"j":{"ha":1111,"x_min":29,"x_max":981,"o":"m 904 1029 l 843 971 l 586 971 l 525 1026 l 586 1085 l 843 1085 l 904 1029 m 981 500 l 925 439 l 867 500 l 867 949 l 922 1010 l 981 949 l 981 500 m 981 -107 l 925 -169 l 867 -107 l 867 338 l 922 399 l 981 338 l 981 -107 m 904 -187 l 843 -246 l 586 -246 l 525 -190 l 586 -132 l 843 -132 l 904 -187 m 143 -107 l 88 -169 l 29 -107 l 29 338 l 85 399 l 143 338 l 143 -107 m 485 -187 l 424 -246 l 167 -246 l 106 -190 l 167 -132 l 424 -132 l 485 -187 z "},"k":{"ha":1111,"x_min":29,"x_max":846,"o":"m 846 801 l 633 497 l 582 497 l 582 617 l 815 950 l 846 950 l 846 801 m 846 -111 l 815 -111 l 582 222 l 582 342 l 633 342 l 846 36 l 846 -111 m 143 500 l 88 439 l 29 500 l 29 946 l 85 1007 l 143 946 l 143 500 m 485 421 l 424 363 l 167 363 l 106 418 l 167 476 l 424 476 l 485 421 m 143 -107 l 88 -169 l 29 -107 l 29 338 l 85 399 l 143 338 l 143 -107 z "},"l":{"ha":1111,"x_min":29,"x_max":904,"o":"m 143 500 l 88 439 l 29 500 l 29 946 l 85 1007 l 143 946 l 143 500 m 904 -187 l 843 -246 l 586 -246 l 525 -190 l 586 -132 l 843 -132 l 904 -187 m 143 -107 l 88 -169 l 29 -107 l 29 338 l 85 399 l 143 338 l 143 -107 m 485 -187 l 424 -246 l 167 -246 l 106 -190 l 167 -132 l 424 -132 l 485 -187 z "},"m":{"ha":1111,"x_min":29,"x_max":981,"o":"m 981 500 l 925 439 l 867 500 l 867 949 l 922 1010 l 981 949 l 981 500 m 846 801 l 633 497 l 582 497 l 582 617 l 815 950 l 846 950 l 846 801 m 981 -107 l 925 -169 l 867 -107 l 867 338 l 922 399 l 981 338 l 981 -107 m 428 497 l 376 497 l 164 801 l 164 950 l 194 950 l 428 617 l 428 497 m 143 500 l 88 439 l 29 500 l 29 946 l 85 1007 l 143 946 l 143 500 m 143 -107 l 88 -169 l 29 -107 l 29 338 l 85 399 l 143 338 l 143 -107 z "},"n":{"ha":1111,"x_min":29,"x_max":981,"o":"m 981 500 l 925 439 l 867 500 l 867 949 l 922 1010 l 981 949 l 981 500 m 981 -107 l 925 -169 l 867 -107 l 867 338 l 922 399 l 981 338 l 981 -107 m 428 497 l 376 497 l 164 801 l 164 950 l 194 950 l 428 617 l 428 497 m 846 -111 l 815 -111 l 582 222 l 582 342 l 633 342 l 846 36 l 846 -111 m 143 500 l 88 439 l 29 500 l 29 946 l 85 1007 l 143 946 l 143 500 m 143 -107 l 88 -169 l 29 -107 l 29 338 l 85 399 l 143 338 l 143 -107 z "},"o":{"ha":1111,"x_min":29,"x_max":981,"o":"m 904 1029 l 843 971 l 586 971 l 525 1026 l 586 1085 l 843 1085 l 904 1029 m 981 500 l 925 439 l 867 500 l 867 949 l 922 1010 l 981 949 l 981 500 m 485 1029 l 424 971 l 167 971 l 106 1026 l 167 1085 l 424 1085 l 485 1029 m 981 -107 l 925 -169 l 867 -107 l 867 338 l 922 399 l 981 338 l 981 -107 m 143 500 l 88 439 l 29 500 l 29 946 l 85 1007 l 143 946 l 143 500 m 904 -187 l 843 -246 l 586 -246 l 525 -190 l 586 -132 l 843 -132 l 904 -187 m 143 -107 l 88 -169 l 29 -107 l 29 338 l 85 399 l 143 338 l 143 -107 m 485 -187 l 424 -246 l 167 -246 l 106 -190 l 167 -132 l 424 -132 l 485 -187 z "},"p":{"ha":1111,"x_min":29,"x_max":981,"o":"m 904 1029 l 843 971 l 586 971 l 525 1026 l 586 1085 l 843 1085 l 904 1029 m 981 500 l 925 439 l 867 500 l 867 949 l 922 1010 l 981 949 l 981 500 m 485 1029 l 424 971 l 167 971 l 106 1026 l 167 1085 l 424 1085 l 485 1029 m 904 421 l 843 363 l 586 363 l 525 418 l 586 476 l 843 476 l 904 421 m 143 500 l 88 439 l 29 500 l 29 946 l 85 1007 l 143 946 l 143 500 m 485 421 l 424 363 l 167 363 l 106 418 l 167 476 l 424 476 l 485 421 m 143 -107 l 88 -169 l 29 -107 l 29 338 l 85 399 l 143 338 l 143 -107 z "},"q":{"ha":1111,"x_min":29,"x_max":981,"o":"m 904 1029 l 843 971 l 586 971 l 525 1026 l 586 1085 l 843 1085 l 904 1029 m 981 500 l 925 439 l 867 500 l 867 949 l 922 1010 l 981 949 l 981 500 m 485 1029 l 424 971 l 167 971 l 106 1026 l 167 1085 l 424 1085 l 485 1029 m 981 -107 l 925 -169 l 867 -107 l 867 338 l 922 399 l 981 338 l 981 -107 m 846 -111 l 815 -111 l 582 222 l 582 342 l 633 342 l 846 36 l 846 -111 m 143 500 l 88 439 l 29 500 l 29 946 l 85 1007 l 143 946 l 143 500 m 904 -187 l 843 -246 l 586 -246 l 525 -190 l 586 -132 l 843 -132 l 904 -187 m 143 -107 l 88 -169 l 29 -107 l 29 338 l 85 399 l 143 338 l 143 -107 m 485 -187 l 424 -246 l 167 -246 l 106 -190 l 167 -132 l 424 -132 l 485 -187 z "},"r":{"ha":1111,"x_min":29,"x_max":981,"o":"m 904 1029 l 843 971 l 586 971 l 525 1026 l 586 1085 l 843 1085 l 904 1029 m 981 500 l 925 439 l 867 500 l 867 949 l 922 1010 l 981 949 l 981 500 m 485 1029 l 424 971 l 167 971 l 106 1026 l 167 1085 l 424 1085 l 485 1029 m 904 421 l 843 363 l 586 363 l 525 418 l 586 476 l 843 476 l 904 421 m 846 -111 l 815 -111 l 582 222 l 582 342 l 633 342 l 846 36 l 846 -111 m 143 500 l 88 439 l 29 500 l 29 946 l 85 1007 l 143 946 l 143 500 m 485 421 l 424 363 l 167 363 l 106 418 l 167 476 l 424 476 l 485 421 m 143 -107 l 88 -169 l 29 -107 l 29 338 l 85 399 l 143 338 l 143 -107 z "},"s":{"ha":1111,"x_min":29,"x_max":981,"o":"m 904 1029 l 843 971 l 586 971 l 525 1026 l 586 1085 l 843 1085 l 904 1029 m 485 1029 l 424 971 l 167 971 l 106 1026 l 167 1085 l 424 1085 l 485 1029 m 904 421 l 843 363 l 586 363 l 525 418 l 586 476 l 843 476 l 904 421 m 981 -107 l 925 -169 l 867 -107 l 867 338 l 922 399 l 981 338 l 981 -107 m 143 500 l 88 439 l 29 500 l 29 946 l 85 1007 l 143 946 l 143 500 m 485 421 l 424 363 l 167 363 l 106 418 l 167 476 l 424 476 l 485 421 m 904 -187 l 843 -246 l 586 -246 l 525 -190 l 586 -132 l 843 -132 l 904 -187 m 485 -187 l 424 -246 l 167 -246 l 106 -190 l 167 -132 l 424 -132 l 485 -187 z "},"t":{"ha":1111,"x_min":106,"x_max":904,"o":"m 904 1029 l 843 971 l 586 971 l 525 1026 l 586 1085 l 843 1085 l 904 1029 m 485 1029 l 424 971 l 167 971 l 106 1026 l 167 1085 l 424 1085 l 485 1029 m 563 500 l 507 439 l 447 500 l 447 946 l 503 1007 l 563 946 l 563 500 m 563 -107 l 507 -169 l 447 -107 l 447 338 l 503 399 l 563 338 l 563 -107 z "},"u":{"ha":1111,"x_min":29,"x_max":981,"o":"m 981 500 l 925 439 l 867 500 l 867 949 l 922 1010 l 981 949 l 981 500 m 981 -107 l 925 -169 l 867 -107 l 867 338 l 922 399 l 981 338 l 981 -107 m 143 500 l 88 439 l 29 500 l 29 946 l 85 1007 l 143 946 l 143 500 m 904 -187 l 843 -246 l 586 -246 l 525 -190 l 586 -132 l 843 -132 l 904 -187 m 143 -107 l 88 -169 l 29 -107 l 29 338 l 85 399 l 143 338 l 143 -107 m 485 -187 l 424 -246 l 167 -246 l 106 -190 l 167 -132 l 424 -132 l 485 -187 z "},"v":{"ha":1111,"x_min":29,"x_max":981,"o":"m 981 500 l 925 439 l 867 500 l 867 949 l 922 1010 l 981 949 l 981 500 m 846 222 l 613 -111 l 582 -111 l 582 36 l 796 342 l 846 342 l 846 222 m 143 500 l 88 439 l 29 500 l 29 946 l 85 1007 l 143 946 l 143 500 m 428 -111 l 397 -111 l 164 222 l 164 342 l 214 342 l 428 36 l 428 -111 z "},"w":{"ha":1111,"x_min":29,"x_max":981,"o":"m 981 500 l 925 439 l 867 500 l 867 949 l 922 1010 l 981 949 l 981 500 m 981 -107 l 925 -169 l 867 -107 l 867 338 l 922 399 l 981 338 l 981 -107 m 846 -111 l 815 -111 l 582 222 l 582 342 l 633 342 l 846 36 l 846 -111 m 143 500 l 88 439 l 29 500 l 29 946 l 85 1007 l 143 946 l 143 500 m 428 222 l 194 -111 l 164 -111 l 164 36 l 376 342 l 428 342 l 428 222 m 143 -107 l 88 -169 l 29 -107 l 29 338 l 85 399 l 143 338 l 143 -107 z "},"x":{"ha":1111,"x_min":164,"x_max":846,"o":"m 846 801 l 633 497 l 582 497 l 582 617 l 815 950 l 846 950 l 846 801 m 428 497 l 376 497 l 164 801 l 164 950 l 194 950 l 428 617 l 428 497 m 846 -111 l 815 -111 l 582 222 l 582 342 l 633 342 l 846 36 l 846 -111 m 428 222 l 194 -111 l 164 -111 l 164 36 l 376 342 l 428 342 l 428 222 z "},"y":{"ha":1111,"x_min":164,"x_max":846,"o":"m 846 801 l 633 497 l 582 497 l 582 617 l 815 950 l 846 950 l 846 801 m 428 497 l 376 497 l 164 801 l 164 950 l 194 950 l 428 617 l 428 497 m 563 -107 l 507 -169 l 447 -107 l 447 338 l 503 399 l 563 338 l 563 -107 z "},"z":{"ha":1111,"x_min":106,"x_max":904,"o":"m 904 1029 l 843 971 l 586 971 l 525 1026 l 586 1085 l 843 1085 l 904 1029 m 846 801 l 633 497 l 582 497 l 582 617 l 815 950 l 846 950 l 846 801 m 485 1029 l 424 971 l 167 971 l 106 1026 l 167 1085 l 424 1085 l 485 1029 m 904 -187 l 843 -246 l 586 -246 l 525 -190 l 586 -132 l 843 -132 l 904 -187 m 428 222 l 194 -111 l 164 -111 l 164 36 l 376 342 l 428 342 l 428 222 m 485 -187 l 424 -246 l 167 -246 l 106 -190 l 167 -132 l 424 -132 l 485 -187 z "},"{":{"ha":1111,"x_min":106,"x_max":904,"o":"m 904 1029 l 843 971 l 586 971 l 525 1026 l 586 1085 l 843 1085 l 904 1029 m 563 500 l 507 439 l 447 500 l 447 946 l 503 1007 l 563 946 l 563 500 m 563 -107 l 507 -169 l 447 -107 l 447 338 l 503 399 l 563 338 l 563 -107 m 904 -187 l 843 -246 l 586 -246 l 525 -190 l 586 -132 l 843 -132 l 904 -187 m 485 421 l 424 363 l 167 363 l 106 418 l 167 476 l 424 476 l 485 421 z "},"|":{"ha":1111,"x_min":447,"x_max":563,"o":"m 563 500 l 507 439 l 447 500 l 447 946 l 503 1007 l 563 946 l 563 500 m 563 -107 l 507 -169 l 447 -107 l 447 338 l 503 399 l 563 338 l 563 -107 z "},"}":{"ha":1111,"x_min":106,"x_max":904,"o":"m 485 1029 l 424 971 l 167 971 l 106 1026 l 167 1085 l 424 1085 l 485 1029 m 563 500 l 507 439 l 447 500 l 447 946 l 503 1007 l 563 946 l 563 500 m 563 -107 l 507 -169 l 447 -107 l 447 338 l 503 399 l 563 338 l 563 -107 m 485 -187 l 424 -246 l 167 -246 l 106 -190 l 167 -132 l 424 -132 l 485 -187 m 904 421 l 843 363 l 586 363 l 525 418 l 586 476 l 843 476 l 904 421 z "},"Æ":{"ha":1111,"x_min":29,"x_max":904,"o":"m 904 1029 l 843 971 l 586 971 l 525 1026 l 586 1085 l 843 1085 l 904 1029 m 563 500 l 507 439 l 447 500 l 447 946 l 503 1007 l 563 946 l 563 500 m 904 421 l 843 363 l 586 363 l 525 418 l 586 476 l 843 476 l 904 421 m 428 801 l 214 497 l 164 497 l 164 617 l 397 950 l 428 950 l 428 801 m 485 421 l 424 363 l 167 363 l 106 418 l 167 476 l 424 476 l 485 421 m 563 -107 l 507 -169 l 447 -107 l 447 338 l 503 399 l 563 338 l 563 -107 m 904 -187 l 843 -246 l 586 -246 l 525 -190 l 586 -132 l 843 -132 l 904 -187 m 143 -107 l 88 -169 l 29 -107 l 29 338 l 85 399 l 143 338 l 143 -107 z "},"Ø":{"ha":1111,"x_min":29,"x_max":981,"o":"m 904 1029 l 843 971 l 586 971 l 525 1026 l 586 1085 l 843 1085 l 904 1029 m 981 500 l 925 439 l 867 500 l 867 949 l 922 1010 l 981 949 l 981 500 m 846 801 l 633 497 l 582 497 l 582 617 l 815 950 l 846 950 l 846 801 m 485 1029 l 424 971 l 167 971 l 106 1026 l 167 1085 l 424 1085 l 485 1029 m 981 -107 l 925 -169 l 867 -107 l 867 338 l 922 399 l 981 338 l 981 -107 m 143 500 l 88 439 l 29 500 l 29 946 l 85 1007 l 143 946 l 143 500 m 904 -187 l 843 -246 l 586 -246 l 525 -190 l 586 -132 l 843 -132 l 904 -187 m 428 222 l 194 -111 l 164 -111 l 164 36 l 376 342 l 428 342 l 428 222 m 143 -107 l 88 -169 l 29 -107 l 29 338 l 85 399 l 143 338 l 143 -107 m 485 -187 l 424 -246 l 167 -246 l 106 -190 l 167 -132 l 424 -132 l 485 -187 z "},"æ":{"ha":1111,"x_min":29,"x_max":904,"o":"m 904 1029 l 843 971 l 586 971 l 525 1026 l 586 1085 l 843 1085 l 904 1029 m 563 500 l 507 439 l 447 500 l 447 946 l 503 1007 l 563 946 l 563 500 m 904 421 l 843 363 l 586 363 l 525 418 l 586 476 l 843 476 l 904 421 m 428 801 l 214 497 l 164 497 l 164 617 l 397 950 l 428 950 l 428 801 m 485 421 l 424 363 l 167 363 l 106 418 l 167 476 l 424 476 l 485 421 m 563 -107 l 507 -169 l 447 -107 l 447 338 l 503 399 l 563 338 l 563 -107 m 904 -187 l 843 -246 l 586 -246 l 525 -190 l 586 -132 l 843 -132 l 904 -187 m 143 -107 l 88 -169 l 29 -107 l 29 338 l 85 399 l 143 338 l 143 -107 z "},"ø":{"ha":1111,"x_min":29,"x_max":981,"o":"m 904 1029 l 843 971 l 586 971 l 525 1026 l 586 1085 l 843 1085 l 904 1029 m 981 500 l 925 439 l 867 500 l 867 949 l 922 1010 l 981 949 l 981 500 m 846 801 l 633 497 l 582 497 l 582 617 l 815 950 l 846 950 l 846 801 m 485 1029 l 424 971 l 167 971 l 106 1026 l 167 1085 l 424 1085 l 485 1029 m 981 -107 l 925 -169 l 867 -107 l 867 338 l 922 399 l 981 338 l 981 -107 m 143 500 l 88 439 l 29 500 l 29 946 l 85 1007 l 143 946 l 143 500 m 904 -187 l 843 -246 l 586 -246 l 525 -190 l 586 -132 l 843 -132 l 904 -187 m 428 222 l 194 -111 l 164 -111 l 164 36 l 376 342 l 428 342 l 428 222 m 143 -107 l 88 -169 l 29 -107 l 29 338 l 85 399 l 143 338 l 143 -107 m 485 -187 l 424 -246 l 167 -246 l 106 -190 l 167 -132 l 424 -132 l 485 -187 z "}}}
